# xmcd
#
# Track frame offsets:
#	150
#	13870
#	23522
#	34485
#	57645
#	70577
#	82417
#	96367
#	108845
#	123512
#
# Disc length: 1870 seconds
#
# Revision: 0
# Processed by: cddbd v1.5.2PL0 Copyright (c) Steve Scherf et al.
# Submitted via: dBpowerAMP V4.0
#
DISCID=88074c0a
DTITLE=Various Artist - Basic Blues
DYEAR=2001
DGENRE=Blues
TTITLE0=I'm a King Bee - Slim Harpo
TTITLE1=29 Ways - Willie Dixon
TTITLE2=Little Red Rooster - Howlin' Wolf
TTITLE3=It Serves You Right to Suffer - John Lee Hooker
TTITLE4=Little City Woman - Big Bill Broonzy
TTITLE5=My Babe - Little Walter
TTITLE6=Close to You - Muddy Waters
TTITLE7=One Way Out - Sonny Boy Williamson
TTITLE8=I've Been Down So Long - I.B. Lenoir
TTITLE9=Sitting Here Alone - Hound Dog Taylor
EXTD=compilation album
EXTT0=
EXTT1=
EXTT2=
EXTT3=
EXTT4=
EXTT5=
EXTT6=
EXTT7=
EXTT8=
EXTT9=
PLAYORDER=
